<svg width="428" height="926" viewBox="0 0 428 926" fill="none" xmlns="http://www.w3.org/2000/svg">
<g clip-path="url(#clip0_343_1049)">
<rect width="428" height="926" rx="50" fill="white"/>
<rect x="-194.463" y="576.051" width="370" height="370" transform="rotate(27.0888 -194.463 576.051)" stroke="#4CB050" stroke-opacity="0.1" stroke-width="2"/>
<rect x="-305" y="635" width="370" height="370" stroke="#4CB050" stroke-opacity="0.1" stroke-width="2"/>
<circle cx="271" cy="77" r="246.5" stroke="#4CB050" stroke-opacity="0.1" stroke-width="3"/>
<circle cx="431.5" cy="-38.5" r="317.5" fill="#4CB050" fill-opacity="0.3"/>
<g clip-path="url(#clip1_343_1049)">
<path fill-rule="evenodd" clip-rule="evenodd" d="M210.436 344.99C263.012 344.99 305.633 302.369 305.633 249.793C305.633 197.216 263.012 154.595 210.436 154.595C157.859 154.595 115.238 197.216 115.238 249.793C115.238 302.369 157.859 344.99 210.436 344.99Z" stroke="#3AD29F" stroke-width="0.641063" stroke-dasharray="3.85 3.85"/>
<path fill-rule="evenodd" clip-rule="evenodd" d="M210.436 365.184C274.165 365.184 325.827 313.521 325.827 249.793C325.827 186.064 274.165 134.401 210.436 134.401C146.707 134.401 95.0444 186.064 95.0444 249.793C95.0444 313.521 146.707 365.184 210.436 365.184Z" stroke="#3AD29F" stroke-width="0.641063" stroke-dasharray="3.85 3.85"/>
<path d="M287.665 286.554C287.668 273.12 277.447 261.89 264.071 260.632C250.696 259.374 238.56 268.502 236.059 281.702L156.058 279.532L156.936 293.276C156.936 293.276 145.528 319.598 205.484 326.611V353.215H274.795V308.982C282.76 304.318 287.657 295.784 287.665 286.554Z" fill="url(#paint0_linear_343_1049)"/>
<path d="M159.683 293.853C159.683 293.853 148.759 319.06 206.176 325.784V351.273H272.555V283.772L158.83 280.689L159.683 293.853Z" fill="#FFCBB4"/>
<path d="M192.858 188.664C189.255 194.35 181.736 196.058 176.03 192.488L140.39 169.003C134.704 165.399 132.996 157.881 136.566 152.175C140.169 146.497 147.677 144.789 153.381 148.351L189.021 171.836C194.711 175.435 196.425 182.954 192.858 188.664Z" fill="url(#paint1_linear_343_1049)"/>
<path d="M190.884 187.382C187.534 192.667 180.546 194.255 175.242 190.937L142.102 169.089C136.817 165.74 135.229 158.752 138.547 153.447C141.896 148.162 148.885 146.574 154.189 149.893L187.322 171.727C192.617 175.075 194.209 182.073 190.884 187.382Z" fill="#FFCBB4"/>
<path d="M259.955 312.341C273.722 312.341 284.882 301.181 284.882 287.413C284.882 273.646 273.722 262.486 259.955 262.486C246.187 262.486 235.027 273.646 235.027 287.413C235.027 301.181 246.187 312.341 259.955 312.341Z" fill="#FFCBB4"/>
<path d="M255.467 123H159.974C157.806 123 156.048 124.758 156.048 126.927V305.61C156.048 307.778 157.806 309.536 159.974 309.536H255.467C257.636 309.536 259.394 307.778 259.394 305.61V126.927C259.394 124.758 257.636 123 255.467 123Z" fill="url(#paint2_linear_343_1049)"/>
<path d="M253.621 125.523H161.814C159.4 125.523 157.442 127.48 157.442 129.895V302.648C157.442 305.063 159.4 307.02 161.814 307.02H253.621C256.036 307.02 257.993 305.063 257.993 302.648V129.895C257.993 127.48 256.036 125.523 253.621 125.523Z" fill="white"/>
<path d="M232.979 130.074C232.378 134.051 228.965 136.995 224.943 137.007H190.217C186.196 136.994 182.785 134.05 182.184 130.074H163.786C162.773 130.074 161.801 130.475 161.084 131.191C160.367 131.907 159.965 132.879 159.965 133.892V298.645C159.965 299.658 160.366 300.63 161.082 301.346C161.798 302.063 162.769 302.465 163.782 302.465H251.653C252.666 302.465 253.638 302.064 254.354 301.348C255.071 300.632 255.474 299.661 255.474 298.648V133.895C255.474 132.882 255.073 131.91 254.357 131.193C253.641 130.477 252.669 130.074 251.656 130.074H232.979Z" fill="#E9ECFF"/>
<path d="M218.424 132.244H197.297C196.943 132.244 196.656 132.531 196.656 132.885V133.004C196.656 133.358 196.943 133.645 197.297 133.645H218.424C218.778 133.645 219.065 133.358 219.065 133.004V132.885C219.065 132.531 218.778 132.244 218.424 132.244Z" fill="#DBDBDB"/>
<path d="M223.824 133.849C224.401 133.849 224.868 133.382 224.868 132.805C224.868 132.228 224.401 131.761 223.824 131.761C223.247 131.761 222.78 132.228 222.78 132.805C222.78 133.382 223.247 133.849 223.824 133.849Z" fill="#DBDBDB"/>
<path d="M276.068 291.811C268.833 293.484 263.868 288.766 262.195 281.535L245.572 219.81C243.918 212.551 248.436 205.318 255.685 203.62C262.944 201.966 270.177 206.484 271.875 213.733L285.44 277.051C287.113 284.285 283.299 290.138 276.068 291.811Z" fill="url(#paint3_linear_343_1049)"/>
<path d="M270.01 215.244C268.6 209.14 262.508 205.335 256.404 206.745C250.3 208.155 246.495 214.247 247.905 220.351L263.191 286.506C264.601 292.61 270.693 296.415 276.797 295.005C282.901 293.595 286.706 287.503 285.295 281.399L270.01 215.244Z" fill="#FFCBB4"/>
<path d="M284.777 342.933H189.899V365.049H284.777V342.933Z" fill="url(#paint4_linear_343_1049)"/>
<path d="M282.212 345.497H192.463V362.806H282.212V345.497Z" fill="#4CB050"/>
<path d="M179.023 254.879C175.464 260.497 168.036 262.186 162.397 258.658L138.495 243.193C132.877 239.633 131.189 232.205 134.716 226.567C138.276 220.949 145.704 219.26 151.342 222.788L175.244 238.253C180.862 241.813 182.551 249.241 179.023 254.879Z" fill="url(#paint5_linear_343_1049)"/>
<path d="M173.023 287.615C169.432 293.285 161.936 294.989 156.247 291.429L141.441 280.634C135.772 277.043 134.067 269.547 137.627 263.857C141.218 258.188 148.714 256.483 154.404 260.043L169.209 270.842C174.877 274.433 176.581 281.926 173.023 287.615Z" fill="url(#paint6_linear_343_1049)"/>
<g opacity="0.5">
<path d="M207.718 245.1C223.639 245.1 236.546 232.193 236.546 216.271C236.546 200.35 223.639 187.443 207.718 187.443C191.796 187.443 178.889 200.35 178.889 216.271C178.889 232.193 191.796 245.1 207.718 245.1Z" fill="url(#paint7_linear_343_1049)"/>
</g>
<path d="M207.717 243.404C222.703 243.404 234.85 231.257 234.85 216.271C234.85 201.286 222.703 189.138 207.717 189.138C192.732 189.138 180.584 201.286 180.584 216.271C180.584 231.257 192.732 243.404 207.717 243.404Z" fill="#4CB050" fill-opacity="0.3"/>
<path d="M195.941 212.649L206.115 221.977L220.529 200.78L225.619 205.021L206.115 230.458L191.701 214.348L195.941 212.649Z" fill="white"/>
<path d="M171.828 286.811C168.478 292.096 161.49 293.684 156.186 290.365L142.377 280.314C137.092 276.964 135.504 269.976 138.823 264.672C142.172 259.387 149.16 257.799 154.464 261.117L168.27 271.188C173.544 274.535 175.132 281.51 171.828 286.811Z" fill="#FFCBB4"/>
<path d="M177.709 254.03C174.36 259.315 167.372 260.903 162.067 257.585L139.579 243.033C134.294 239.683 132.706 232.695 136.024 227.391C139.373 222.106 146.362 220.518 151.666 223.836L174.155 238.388C179.44 241.737 181.028 248.726 177.709 254.03Z" fill="#FFCBB4"/>
<path d="M185.203 222.297C181.626 227.94 174.164 229.636 168.5 226.092L138.21 206.37C132.567 202.793 130.872 195.331 134.415 189.667C137.992 184.025 145.454 182.329 151.118 185.872L181.408 205.595C187.051 209.171 188.746 216.633 185.203 222.297Z" fill="url(#paint8_linear_343_1049)"/>
<path d="M183.594 221.272C180.245 226.557 173.257 228.145 167.953 224.826L139.582 206.354C134.297 203.005 132.709 196.016 136.028 190.712C139.377 185.427 146.365 183.839 151.67 187.158L180.037 205.63C185.323 208.978 186.912 215.967 183.594 221.272Z" fill="#FFCBB4"/>
</g>
</g>
<defs>
<linearGradient id="paint0_linear_343_1049" x1="221.866" y1="353.231" x2="221.866" y2="260.521" gradientUnits="userSpaceOnUse">
<stop stop-color="#808080" stop-opacity="0.25"/>
<stop offset="0.54" stop-color="#808080" stop-opacity="0.12"/>
<stop offset="1" stop-color="#808080" stop-opacity="0.1"/>
</linearGradient>
<linearGradient id="paint1_linear_343_1049" x1="164.709" y1="194.357" x2="164.709" y2="146.488" gradientUnits="userSpaceOnUse">
<stop stop-color="#808080" stop-opacity="0.25"/>
<stop offset="0.54" stop-color="#808080" stop-opacity="0.12"/>
<stop offset="1" stop-color="#808080" stop-opacity="0.1"/>
</linearGradient>
<linearGradient id="paint2_linear_343_1049" x1="207.721" y1="309.533" x2="207.721" y2="122.997" gradientUnits="userSpaceOnUse">
<stop stop-color="#808080" stop-opacity="0.25"/>
<stop offset="0.54" stop-color="#808080" stop-opacity="0.12"/>
<stop offset="1" stop-color="#808080" stop-opacity="0.1"/>
</linearGradient>
<linearGradient id="paint3_linear_343_1049" x1="265.528" y1="292.144" x2="265.528" y2="203.274" gradientUnits="userSpaceOnUse">
<stop stop-color="#808080" stop-opacity="0.25"/>
<stop offset="0.54" stop-color="#808080" stop-opacity="0.12"/>
<stop offset="1" stop-color="#808080" stop-opacity="0.1"/>
</linearGradient>
<linearGradient id="paint4_linear_343_1049" x1="237.344" y1="365.043" x2="237.344" y2="342.926" gradientUnits="userSpaceOnUse">
<stop stop-color="#808080" stop-opacity="0.25"/>
<stop offset="0.54" stop-color="#808080" stop-opacity="0.12"/>
<stop offset="1" stop-color="#808080" stop-opacity="0.1"/>
</linearGradient>
<linearGradient id="paint5_linear_343_1049" x1="156.865" y1="260.501" x2="156.865" y2="220.948" gradientUnits="userSpaceOnUse">
<stop stop-color="#808080" stop-opacity="0.25"/>
<stop offset="0.54" stop-color="#808080" stop-opacity="0.12"/>
<stop offset="1" stop-color="#808080" stop-opacity="0.1"/>
</linearGradient>
<linearGradient id="paint6_linear_343_1049" x1="155.327" y1="293.289" x2="155.327" y2="258.181" gradientUnits="userSpaceOnUse">
<stop stop-color="#808080" stop-opacity="0.25"/>
<stop offset="0.54" stop-color="#808080" stop-opacity="0.12"/>
<stop offset="1" stop-color="#808080" stop-opacity="0.1"/>
</linearGradient>
<linearGradient id="paint7_linear_343_1049" x1="207.718" y1="245.1" x2="207.718" y2="187.44" gradientUnits="userSpaceOnUse">
<stop stop-color="#808080" stop-opacity="0.25"/>
<stop offset="0.54" stop-color="#808080" stop-opacity="0.12"/>
<stop offset="1" stop-color="#808080" stop-opacity="0.1"/>
</linearGradient>
<linearGradient id="paint8_linear_343_1049" x1="159.808" y1="227.955" x2="159.808" y2="184.032" gradientUnits="userSpaceOnUse">
<stop stop-color="#808080" stop-opacity="0.25"/>
<stop offset="0.54" stop-color="#808080" stop-opacity="0.12"/>
<stop offset="1" stop-color="#808080" stop-opacity="0.1"/>
</linearGradient>
<clipPath id="clip0_343_1049">
<rect width="428" height="926" rx="50" fill="white"/>
</clipPath>
<clipPath id="clip1_343_1049">
<rect width="232.871" height="243.314" fill="white" transform="translate(94 123)"/>
</clipPath>
</defs>
</svg>
