<?xml version="1.0" encoding="UTF-8"?>
<svg xmlns="http://www.w3.org/2000/svg" version="1.1" viewBox="0 0 1080 946.167">
  <!-- Generator: Adobe Illustrator 28.7.8, SVG Export Plug-In . SVG Version: 1.2.0 Build 200)  -->
  <g>
    <g id="Layer_1">
      <g>
        <g>
          <path d="M218.134,729.456c0,8.479.361,16.391-.106,24.253-.431,7.246-6.062,11.229-15.377,11.254-40.067.11-80.133.1-120.2.134-3.792.003-7.583,0-11.637,0v46.396h114.334c0,7.501.406,14.079-.094,20.586-.775,10.081-6.579,15.152-16.673,15.164-31.823.038-63.645.014-96.133.014v45.098h145.766c0,8.253.854,16.754-.245,24.994-1.057,7.931-7.241,10.691-15.113,10.662-38.145-.141-76.291-.061-114.437-.054-10.428.002-20.858.114-31.285.007-14.309-.148-22.993-7.907-23.07-22.116-.281-51.864-.236-103.73-.002-155.594.056-12.417,6.734-19.845,19.115-20.149,29.615-.727,59.254-.545,88.883-.634,24.956-.075,49.912-.016,76.272-.016Z"/>
          <path d="M1008.071,876.655c0-5.7-.021-11.279.003-16.858.164-37.859.338-75.718.507-113.577.059-13.149,3.76-17.323,16.686-18.01,6.759-.36,13.554-.063,20.734-.063.146,2.764.332,4.622.328,6.479-.098,53.497-.166,106.994-.351,160.491-.093,26.829-2.877,33.662-33.075,33.244-11.089-.154-16.607-3.704-22.029-12.993-25.735-44.088-52.317-87.682-78.617-131.44-.619-1.03-1.475-1.917-3.518-4.531v147.912h-36.832v-8.427c0-55.967-.007-111.934.006-167.901.004-17.722,5.251-21.885,22.928-23.317,16.056-1.3,25.462,3.854,33.668,18.422,24.76,43.951,51.384,86.852,77.326,130.136.174.291.972.207,2.234.434Z"/>
          <path d="M631.492,828.215c-1.809-54.614,41.851-99.663,98.945-101.484,61.418-1.959,107.455,42.791,106.702,104.006-.688,55.948-38.89,100.134-105.288,99.919-60.717-.196-101.354-47.002-100.36-102.441ZM797.818,827.396c0-.191-.019-1.562.003-2.933.59-37.361-34.834-70.351-75.91-61.478-29.823,6.442-48.884,29-51.873,62.337-3.467,38.672,27.631,72.383,66.348,71.151,35.063-1.115,63.301-29.354,61.432-69.077Z"/>
          <path d="M559.716,850.985c17.248,25.53,34.19,50.607,51.944,76.885-12.134,0-23.41,1.281-34.178-.503-6.009-.996-12.745-5.956-16.434-11.086-12.577-17.487-24.143-35.717-35.646-53.948-3.113-4.933-6.254-7.308-12.306-6.982-10.066.542-20.182.148-30.495.148-4.061-15.935,2.138-35.128,26.897-33.03,7.9.669,15.908.301,23.859.094,16.296-.424,27.153-11.503,27.325-27.621.23-21.598-10.467-32.502-36.398-34.69-14.864-1.254-29.919-.227-45.812-.227v167.466h-35.723c-.203-1.182-.608-2.452-.612-3.724-.146-55.143-.376-110.286-.302-165.429.024-17.982,9.102-27.262,27.025-29.685,27.254-3.685,54.446-5.422,81.413,1.735,32.729,8.686,52.306,32.918,51.418,64.91-.651,23.442-11.826,40.967-33.095,51.592-1.46.729-2.998,1.302-4.485,1.981-1.228.56-2.434,1.168-4.395,2.115Z"/>
          <path d="M345.239,927.74h-36.196v-162.259h-60.557v-35.494h155.899v34.712h-59.146v163.041Z"/>
        </g>
        <g>
          <g>
            <path d="M563.018,224.198h2.151v235.361h-1.693c-15.767,0-31.497-.106-47.262.035-17.53.176-33.261-5.044-47.157-15.519-17.107-12.909-29.239-29.451-34.742-50.366-1.869-7.089-2.504-14.496-3.739-21.797-.034-.353-.141-.705-.21-1.164h-27.371v-9.1h-15.202v-7.301h-36.116v-27.864h35.588v-7.513h15.519v-8.888h27.3c.811-4.55,1.516-8.959,2.468-13.332,5.644-26.559,19.011-47.933,42.29-62.535,8.535-5.361,18.093-8.042,28.039-9.206,5.186-.6,10.476-.741,15.696-.776,14.814-.106,29.627-.035,44.441-.035Z"/>
            <path d="M680.856,299.924c-3.386,7.407-9.064,11.428-17.212,11.428-20.951.035-77.525.071-98.475.035v-45.393c20.598.035,76.82.035,97.452-.141,12.098-.106,19.399,8.923,20.034,19.364.282,4.973.353,9.982-1.8,14.708Z"/>
          </g>
          <path d="M659.412,521.342l-.074-.296c-28.875,15.628-61.939,24.494-97.089,24.494-112.807,0-204.242-91.436-204.242-204.242s91.435-204.242,204.242-204.242c35.135,0,68.199,8.866,97.074,24.494.029-.044.059-.074.089-.119,37.859-51.904,76.887-77.212,79.951-79.15-50.394-34.544-111.401-54.746-177.113-54.746-173.28,0-313.763,140.483-313.763,313.763s140.483,313.763,313.763,313.763c65.698,0,126.689-20.202,177.084-54.731-51.948-35.283-79.921-78.988-79.921-78.988Z"/>
          <path d="M682.799,391.339v7.205c0,10.614-8.576,19.19-19.19,19.19h-27.52l-31.175-45.304-.175-.246h58.871c10.614,0,19.19,8.576,19.19,19.155Z"/>
          <polygon points="564.891 372.104 592.724 372.104 623.476 417.815 564.891 417.815 564.891 372.104"/>
        </g>
      </g>
    </g>
  </g>
</svg>