<?xml version="1.0" encoding="UTF-8"?>
<svg xmlns="http://www.w3.org/2000/svg" version="1.1" viewBox="0 0 738 946.167">
  <!-- Generator: Adobe Illustrator 28.7.8, SVG Export Plug-In . SVG Version: 1.2.0 Build 200)  -->
  <g>
    <g id="Layer_1">
      <g>
        <g>
          <path d="M469.221,301.406h3.154v345.057h-2.482c-23.115,0-46.177-.155-69.29.052-25.701.258-48.763-7.394-69.136-22.752-25.08-18.926-42.867-43.177-50.934-73.841-2.739-10.394-3.671-21.252-5.482-31.956-.05-.517-.207-1.034-.308-1.706h-40.128v-13.341h-22.287v-10.704h-52.949v-40.85h52.174v-11.014h22.752v-13.031h40.024c1.189-6.67,2.222-13.134,3.618-19.546,8.274-38.937,27.872-70.273,62.001-91.681,12.513-7.86,26.526-11.79,41.107-13.496,7.602-.879,15.359-1.086,23.012-1.137,21.719-.155,43.435-.052,65.154-.052Z"/>
          <path d="M641.98,412.426c-4.964,10.859-13.288,16.754-25.234,16.754-30.715.052-113.657.104-144.372.052v-66.55c30.197.052,112.625.052,142.873-.207,17.737-.155,28.44,13.082,29.372,28.388.414,7.291.518,14.634-2.638,21.563Z"/>
        </g>
        <path d="M610.542,737.041l-.108-.433c-42.333,22.912-90.807,35.91-142.34,35.91-165.383,0-299.434-134.052-299.434-299.434S302.711,173.649,468.094,173.649c51.511,0,99.985,12.998,142.318,35.91.043-.065.086-.108.13-.174,55.504-76.095,112.722-113.199,117.214-116.04C653.873,42.701,564.433,13.083,468.094,13.083,214.052,13.083,8.094,219.042,8.094,473.083s205.958,460,460,460c96.318,0,185.736-29.618,259.618-80.24-76.16-51.728-117.17-115.803-117.17-115.803Z"/>
        <path d="M644.829,546.447v10.563c0,15.561-12.572,28.134-28.134,28.134h-40.346l-45.706-66.419-.257-.361h86.309c15.561,0,28.134,12.573,28.134,28.082Z"/>
        <polygon points="471.967 518.247 512.772 518.247 557.857 585.262 471.967 585.262 471.967 518.247"/>
      </g>
    </g>
  </g>
</svg>