<svg width="43" height="43" viewBox="0 0 43 43" fill="none" xmlns="http://www.w3.org/2000/svg">
<path d="M28.7475 18.7353L32.3511 11.386C32.8478 10.373 34.1471 9.87403 35.253 10.2716C36.264 10.6351 36.7779 11.632 36.4511 12.5957L33.5144 21.2571L33.5134 21.2573L34.8672 27.6265C35.7909 31.9724 32.5746 36.3384 27.6832 37.3781L26.8324 37.5589L24.0259 38.1555C20.1477 38.9798 16.248 37.4474 14.43 34.3848L12.6948 31.4614L6.45285 27.4833C5.14554 26.6501 4.89015 24.9898 5.88227 23.7747C6.77387 22.6828 8.3922 22.3052 9.68383 22.8877L14.5482 24.9978C14.7744 25.0959 15.0348 25.1203 15.2866 25.0668C16.0154 24.9118 16.4148 24.1843 16.0921 23.5994L10.2797 13.066C9.70593 12.0264 10.2046 10.7249 11.3927 10.1609C12.5793 9.59771 14.0042 9.98365 14.5751 11.023L19.2966 19.617L16.7214 7.50154C16.4768 6.35085 17.3284 5.19484 18.6235 4.91956C19.9186 4.64429 21.1668 5.35396 21.4114 6.50465L23.9869 18.6217L24.8044 8.85055C24.9033 7.6678 26.049 6.73486 27.3633 6.76677C28.6776 6.79869 29.6628 7.78335 29.5639 8.9661L28.7465 18.7374L28.7475 18.7353Z" fill="#4BB250"/>
<path d="M35.567 9.63148C34.0777 9.09611 32.3217 9.7703 31.6528 11.1347L29.8385 14.8347L30.3279 8.98443C30.4584 7.42458 29.1544 6.12133 27.4212 6.07923C26.5812 6.05879 25.7674 6.33388 25.1291 6.85379C24.4907 7.37365 24.1043 8.0761 24.0411 8.83172L23.6604 13.3826L22.1644 6.34445C21.8419 4.82694 20.1899 3.88762 18.4819 4.25067C16.7739 4.61372 15.6467 6.14376 15.9693 7.66127L17.4651 14.6985L15.2656 10.6951C14.5125 9.32421 12.6263 8.81338 11.061 9.5562C10.3018 9.91661 9.73064 10.5144 9.4528 11.2396C9.17497 11.9648 9.22389 12.7301 9.59044 13.3943L15.4029 23.9276C15.4703 24.0499 15.4301 24.1598 15.4002 24.2144C15.3702 24.269 15.2972 24.3654 15.1448 24.3978C15.0644 24.4149 14.9803 24.4071 14.9082 24.3758L10.0484 22.2676C8.43676 21.5438 6.38462 22.0238 5.27259 23.3856C4.02677 24.9115 4.34868 27.004 5.99025 28.0501L12.0948 31.9407L13.7506 34.7302C14.7189 36.3616 16.2301 37.6166 18.1207 38.3595C20.0111 39.1025 22.1023 39.263 24.1682 38.8239L27.8256 38.0465C29.7765 37.6318 31.5449 36.7159 32.9399 35.3979C34.3015 34.1113 35.2217 32.5284 35.601 30.8204C35.6844 30.445 35.4158 30.0945 35.0011 30.0377C34.5862 29.9808 34.1827 30.2392 34.0993 30.6146C33.4337 33.6116 30.8596 36.0039 27.5414 36.7092L23.8839 37.4866C20.3108 38.2461 16.7849 36.8605 15.11 34.0389L13.3748 31.1155C13.3225 31.0274 13.2485 30.9518 13.158 30.8942L6.91616 26.9161C5.94739 26.2987 5.75734 25.0638 6.49259 24.1633C7.14958 23.3587 8.36265 23.0757 9.31438 23.5049C9.31768 23.5064 9.32107 23.5079 9.32437 23.5094L14.1887 25.6195C14.5673 25.7836 15.0077 25.8248 15.429 25.7352C16.0125 25.6112 16.5005 25.2608 16.7678 24.7737C17.0352 24.2867 17.0403 23.7388 16.782 23.2705L10.9695 12.7372C10.7811 12.3959 10.756 12.0027 10.8987 11.6301C11.0415 11.2575 11.3348 10.9504 11.725 10.7652C12.529 10.3835 13.4982 10.646 13.8852 11.3503L18.6067 19.9444C18.7734 20.2478 19.1707 20.3829 19.536 20.2588C19.9011 20.1355 20.1207 19.7924 20.0494 19.4568L17.4742 7.3414C17.3083 6.56121 17.8878 5.77467 18.7659 5.58803C19.6439 5.4014 20.4933 5.88423 20.6591 6.66442L23.2347 18.7815C23.306 19.1171 23.6461 19.3412 24.0299 19.3053C24.4133 19.2695 24.722 18.985 24.7509 18.6401L25.5683 8.86892C25.6354 8.06697 26.4149 7.43233 27.306 7.45385C28.1971 7.47549 28.8675 8.1455 28.8004 8.94745L27.983 18.7186C27.9512 19.0982 28.2674 19.4142 28.6892 19.4244C29.0206 19.4325 29.3178 19.249 29.4457 18.986L29.4464 18.9862L33.05 11.637C33.373 10.9785 34.2207 10.6529 34.9394 10.9114C35.5965 11.1477 35.9319 11.7983 35.7195 12.4247L32.7948 21.0507C32.7483 21.1656 32.7343 21.2914 32.761 21.4171L33.4752 24.7773C33.5537 25.1465 33.9543 25.3743 34.3699 25.286C34.7856 25.1976 35.0588 24.8266 34.9804 24.4574L34.3018 21.2648L37.1832 12.7663C37.6231 11.4687 36.9284 10.121 35.567 9.63148Z" fill="black"/>
<path d="M22.3994 28.3221C22.6377 27.9985 22.5478 27.5752 22.1984 27.3764C20.8503 26.6101 19.0051 27.0023 18.0854 28.2507C17.847 28.5743 17.9369 28.9977 18.2864 29.1964C18.6358 29.395 19.1124 29.2937 19.3507 28.9701C19.7945 28.3677 20.6847 28.1785 21.3352 28.5483C21.5099 28.6476 21.7164 28.672 21.9089 28.6311C22.1015 28.5901 22.2801 28.4839 22.3994 28.3221Z" fill="black"/>
<path d="M28.4135 27.0439C28.5882 27.1432 28.7947 27.1676 28.9872 27.1267C29.1798 27.0858 29.3586 26.9795 29.4777 26.8177C29.7161 26.4942 29.6261 26.0708 29.2767 25.872C27.9287 25.1057 26.0835 25.4979 25.1637 26.7463C24.9254 27.0699 25.0153 27.4933 25.3648 27.692C25.7143 27.8906 26.1907 27.7893 26.429 27.4657C26.8727 26.8634 27.763 26.6741 28.4135 27.0439Z" fill="black"/>
<path d="M24.94 32.9846C25.8436 32.7925 26.6266 32.2993 27.1449 31.5958C27.3833 31.2722 27.2933 30.8488 26.9439 30.6501C26.5946 30.4515 26.118 30.5528 25.8796 30.8763C25.2857 31.6825 24.0944 31.9357 23.2241 31.4408C22.8747 31.2422 22.3982 31.3435 22.1597 31.667C21.9214 31.9906 22.0113 32.414 22.3607 32.6127C23.1204 33.0445 24.0364 33.1766 24.94 32.9846Z" fill="black"/>
<path d="M34.7252 26.9572C34.5273 26.9993 34.3483 27.1121 34.2348 27.2663C34.1214 27.421 34.0774 27.61 34.1148 27.7858C34.1523 27.9624 34.2694 28.1171 34.4359 28.2124C34.6023 28.307 34.8117 28.3373 35.0096 28.2952C35.2075 28.2531 35.3865 28.1404 35.5 27.9862C35.6134 27.8314 35.6574 27.6425 35.6199 27.4659C35.5825 27.2901 35.4655 27.1353 35.2989 27.0401C35.1325 26.9454 34.9231 26.9152 34.7252 26.9572Z" fill="black"/>
</svg>
